<svg width="109" height="36" viewBox="0 0 109 36" fill="none" xmlns="http://www.w3.org/2000/svg">
<path d="M14.832 1.4V35H7.056V7.64H0.336V1.4H14.832ZM45.7729 28.664V35H20.3809V29.96L33.3409 17.72C34.7169 16.408 35.6449 15.288 36.1249 14.36C36.6049 13.4 36.8449 12.456 36.8449 11.528C36.8449 10.184 36.3809 9.16 35.4529 8.456C34.5569 7.72 33.2289 7.352 31.4689 7.352C29.9969 7.352 28.6689 7.64 27.4849 8.216C26.3009 8.76 25.3089 9.592 24.5089 10.712L18.8449 7.064C20.1569 5.112 21.9649 3.592 24.2689 2.504C26.5729 1.384 29.2129 0.823999 32.1889 0.823999C34.6849 0.823999 36.8609 1.24 38.7169 2.072C40.6049 2.872 42.0609 4.024 43.0849 5.528C44.1409 7 44.6689 8.744 44.6689 10.76C44.6689 12.584 44.2849 14.296 43.5169 15.896C42.7489 17.496 41.2609 19.32 39.0529 21.368L31.3249 28.664H45.7729ZM64.6774 15.08C67.6214 15.56 69.8774 16.664 71.4454 18.392C73.0134 20.088 73.7974 22.2 73.7974 24.728C73.7974 26.68 73.2854 28.488 72.2614 30.152C71.2374 31.784 69.6694 33.096 67.5574 34.088C65.4774 35.08 62.9174 35.576 59.8774 35.576C57.5094 35.576 55.1734 35.272 52.8694 34.664C50.5974 34.024 48.6614 33.128 47.0614 31.976L50.0854 26.024C51.3654 26.984 52.8374 27.736 54.5014 28.28C56.1974 28.792 57.9254 29.048 59.6854 29.048C61.6374 29.048 63.1734 28.68 64.2934 27.944C65.4134 27.176 65.9734 26.104 65.9734 24.728C65.9734 21.976 63.8774 20.6 59.6854 20.6H56.1334V15.464L63.0454 7.64H48.7414V1.4H72.2614V6.44L64.6774 15.08ZM108.156 27.944H102.684V35H95.0996V27.944H77.0036V22.712L92.8436 1.4H101.004L86.3156 21.608H95.3396V15.32H102.684V21.608H108.156V27.944Z" fill="#FF001E"/>
</svg>
