<svg width="137" height="23" viewBox="0 0 137 23" fill="none" xmlns="http://www.w3.org/2000/svg">
<path d="M7.848 18.192C6.488 18.192 5.264 17.912 4.176 17.352C3.104 16.776 2.264 15.984 1.656 14.976C1.048 13.968 0.744 12.824 0.744 11.544C0.744 10.264 1.048 9.12 1.656 8.112C2.264 7.104 3.104 6.32 4.176 5.76C5.264 5.184 6.488 4.896 7.848 4.896C9.208 4.896 10.424 5.184 11.496 5.76C12.568 6.32 13.408 7.104 14.016 8.112C14.624 9.12 14.928 10.264 14.928 11.544C14.928 12.824 14.624 13.968 14.016 14.976C13.408 15.984 12.568 16.776 11.496 17.352C10.424 17.912 9.208 18.192 7.848 18.192ZM7.848 15.12C8.808 15.12 9.592 14.8 10.2 14.16C10.824 13.504 11.136 12.632 11.136 11.544C11.136 10.456 10.824 9.592 10.2 8.952C9.592 8.296 8.808 7.968 7.848 7.968C6.888 7.968 6.096 8.296 5.472 8.952C4.848 9.592 4.536 10.456 4.536 11.544C4.536 12.632 4.848 13.504 5.472 14.16C6.096 14.8 6.888 15.12 7.848 15.12ZM27.8824 8.16H23.5144V18H19.7944V8.16H15.4264V5.088H27.8824V8.16ZM42.291 1.2V18H38.403V4.32H35.043V1.2H42.291ZM50.9694 7.512C53.3374 7.512 55.0814 7.984 56.2014 8.928C57.3374 9.872 57.9054 11.136 57.9054 12.72C57.9054 13.744 57.6494 14.68 57.1374 15.528C56.6254 16.36 55.8414 17.032 54.7854 17.544C53.7454 18.04 52.4574 18.288 50.9214 18.288C49.7374 18.288 48.5694 18.136 47.4174 17.832C46.2814 17.512 45.3134 17.064 44.5134 16.488L46.0494 13.512C46.6894 13.992 47.4254 14.368 48.2574 14.64C49.0894 14.896 49.9454 15.024 50.8254 15.024C51.8014 15.024 52.5694 14.832 53.1294 14.448C53.6894 14.064 53.9694 13.528 53.9694 12.84C53.9694 12.12 53.6734 11.576 53.0814 11.208C52.5054 10.84 51.4974 10.656 50.0574 10.656H45.7614L46.6254 1.2H56.8734V4.32H49.8654L49.6014 7.512H50.9694ZM73.4798 18.288C72.0878 18.288 70.8478 17.944 69.7598 17.256C68.6718 16.568 67.8158 15.576 67.1918 14.28C66.5838 12.968 66.2798 11.408 66.2798 9.6C66.2798 7.792 66.5838 6.24 67.1918 4.944C67.8158 3.632 68.6718 2.632 69.7598 1.944C70.8478 1.256 72.0878 0.912 73.4798 0.912C74.8718 0.912 76.1118 1.256 77.1998 1.944C78.2878 2.632 79.1358 3.632 79.7438 4.944C80.3678 6.24 80.6798 7.792 80.6798 9.6C80.6798 11.408 80.3678 12.968 79.7438 14.28C79.1358 15.576 78.2878 16.568 77.1998 17.256C76.1118 17.944 74.8718 18.288 73.4798 18.288ZM73.4798 15C74.5038 15 75.3038 14.56 75.8798 13.68C76.4718 12.8 76.7678 11.44 76.7678 9.6C76.7678 7.76 76.4718 6.4 75.8798 5.52C75.3038 4.64 74.5038 4.2 73.4798 4.2C72.4718 4.2 71.6718 4.64 71.0798 5.52C70.5038 6.4 70.2158 7.76 70.2158 9.6C70.2158 11.44 70.5038 12.8 71.0798 13.68C71.6718 14.56 72.4718 15 73.4798 15ZM89.7688 18.288C88.3768 18.288 87.1368 17.944 86.0488 17.256C84.9608 16.568 84.1048 15.576 83.4808 14.28C82.8728 12.968 82.5688 11.408 82.5688 9.6C82.5688 7.792 82.8728 6.24 83.4808 4.944C84.1048 3.632 84.9608 2.632 86.0488 1.944C87.1368 1.256 88.3768 0.912 89.7688 0.912C91.1608 0.912 92.4008 1.256 93.4888 1.944C94.5768 2.632 95.4248 3.632 96.0328 4.944C96.6568 6.24 96.9688 7.792 96.9688 9.6C96.9688 11.408 96.6568 12.968 96.0328 14.28C95.4248 15.576 94.5768 16.568 93.4888 17.256C92.4008 17.944 91.1608 18.288 89.7688 18.288ZM89.7688 15C90.7928 15 91.5928 14.56 92.1688 13.68C92.7608 12.8 93.0568 11.44 93.0568 9.6C93.0568 7.76 92.7608 6.4 92.1688 5.52C91.5928 4.64 90.7928 4.2 89.7688 4.2C88.7608 4.2 87.9608 4.64 87.3688 5.52C86.7928 6.4 86.5048 7.76 86.5048 9.6C86.5048 11.44 86.7928 12.8 87.3688 13.68C87.9608 14.56 88.7608 15 89.7688 15ZM106.058 18.288C104.666 18.288 103.426 17.944 102.338 17.256C101.25 16.568 100.394 15.576 99.7699 14.28C99.1619 12.968 98.8579 11.408 98.8579 9.6C98.8579 7.792 99.1619 6.24 99.7699 4.944C100.394 3.632 101.25 2.632 102.338 1.944C103.426 1.256 104.666 0.912 106.058 0.912C107.45 0.912 108.69 1.256 109.778 1.944C110.866 2.632 111.714 3.632 112.322 4.944C112.946 6.24 113.258 7.792 113.258 9.6C113.258 11.408 112.946 12.968 112.322 14.28C111.714 15.576 110.866 16.568 109.778 17.256C108.69 17.944 107.45 18.288 106.058 18.288ZM106.058 15C107.082 15 107.882 14.56 108.458 13.68C109.05 12.8 109.346 11.44 109.346 9.6C109.346 7.76 109.05 6.4 108.458 5.52C107.882 4.64 107.082 4.2 106.058 4.2C105.05 4.2 104.25 4.64 103.658 5.52C103.082 6.4 102.794 7.76 102.794 9.6C102.794 11.44 103.082 12.8 103.658 13.68C104.25 14.56 105.05 15 106.058 15ZM130.416 4.896C131.616 4.896 132.704 5.176 133.68 5.736C134.672 6.28 135.448 7.056 136.008 8.064C136.568 9.056 136.848 10.216 136.848 11.544C136.848 12.872 136.568 14.04 136.008 15.048C135.448 16.04 134.672 16.816 133.68 17.376C132.704 17.92 131.616 18.192 130.416 18.192C128.768 18.192 127.472 17.672 126.528 16.632V22.656H122.784V5.088H126.36V6.576C127.288 5.456 128.64 4.896 130.416 4.896ZM129.768 15.12C130.728 15.12 131.512 14.8 132.12 14.16C132.744 13.504 133.056 12.632 133.056 11.544C133.056 10.456 132.744 9.592 132.12 8.952C131.512 8.296 130.728 7.968 129.768 7.968C128.808 7.968 128.016 8.296 127.392 8.952C126.784 9.592 126.48 10.456 126.48 11.544C126.48 12.632 126.784 13.504 127.392 14.16C128.016 14.8 128.808 15.12 129.768 15.12Z" fill="#FF001E"/>
</svg>
