<svg width="128" height="23" viewBox="0 0 128 23" fill="none" xmlns="http://www.w3.org/2000/svg">
<path d="M7.848 18.192C6.488 18.192 5.264 17.912 4.176 17.352C3.104 16.776 2.264 15.984 1.656 14.976C1.048 13.968 0.744 12.824 0.744 11.544C0.744 10.264 1.048 9.12 1.656 8.112C2.264 7.104 3.104 6.32 4.176 5.76C5.264 5.184 6.488 4.896 7.848 4.896C9.208 4.896 10.424 5.184 11.496 5.76C12.568 6.32 13.408 7.104 14.016 8.112C14.624 9.12 14.928 10.264 14.928 11.544C14.928 12.824 14.624 13.968 14.016 14.976C13.408 15.984 12.568 16.776 11.496 17.352C10.424 17.912 9.208 18.192 7.848 18.192ZM7.848 15.12C8.808 15.12 9.592 14.8 10.2 14.16C10.824 13.504 11.136 12.632 11.136 11.544C11.136 10.456 10.824 9.592 10.2 8.952C9.592 8.296 8.808 7.968 7.848 7.968C6.888 7.968 6.096 8.296 5.472 8.952C4.848 9.592 4.536 10.456 4.536 11.544C4.536 12.632 4.848 13.504 5.472 14.16C6.096 14.8 6.888 15.12 7.848 15.12ZM27.8824 8.16H23.5144V18H19.7944V8.16H15.4264V5.088H27.8824V8.16ZM43.659 8.04C45.131 8.28 46.259 8.832 47.043 9.696C47.827 10.544 48.219 11.6 48.219 12.864C48.219 13.84 47.963 14.744 47.451 15.576C46.939 16.392 46.155 17.048 45.099 17.544C44.059 18.04 42.779 18.288 41.259 18.288C40.075 18.288 38.907 18.136 37.755 17.832C36.619 17.512 35.651 17.064 34.851 16.488L36.363 13.512C37.003 13.992 37.739 14.368 38.571 14.64C39.419 14.896 40.283 15.024 41.163 15.024C42.139 15.024 42.907 14.84 43.467 14.472C44.027 14.088 44.307 13.552 44.307 12.864C44.307 11.488 43.259 10.8 41.163 10.8H39.387V8.232L42.843 4.32H35.691V1.2H47.451V3.72L43.659 8.04ZM64.011 18.288C62.619 18.288 61.379 17.944 60.291 17.256C59.203 16.568 58.347 15.576 57.723 14.28C57.115 12.968 56.811 11.408 56.811 9.6C56.811 7.792 57.115 6.24 57.723 4.944C58.347 3.632 59.203 2.632 60.291 1.944C61.379 1.256 62.619 0.912 64.011 0.912C65.403 0.912 66.643 1.256 67.731 1.944C68.819 2.632 69.667 3.632 70.275 4.944C70.899 6.24 71.211 7.792 71.211 9.6C71.211 11.408 70.899 12.968 70.275 14.28C69.667 15.576 68.819 16.568 67.731 17.256C66.643 17.944 65.403 18.288 64.011 18.288ZM64.011 15C65.035 15 65.835 14.56 66.411 13.68C67.003 12.8 67.299 11.44 67.299 9.6C67.299 7.76 67.003 6.4 66.411 5.52C65.835 4.64 65.035 4.2 64.011 4.2C63.003 4.2 62.203 4.64 61.611 5.52C61.035 6.4 60.747 7.76 60.747 9.6C60.747 11.44 61.035 12.8 61.611 13.68C62.203 14.56 63.003 15 64.011 15ZM80.3001 18.288C78.9081 18.288 77.6681 17.944 76.5801 17.256C75.4921 16.568 74.6361 15.576 74.0121 14.28C73.4041 12.968 73.1001 11.408 73.1001 9.6C73.1001 7.792 73.4041 6.24 74.0121 4.944C74.6361 3.632 75.4921 2.632 76.5801 1.944C77.6681 1.256 78.9081 0.912 80.3001 0.912C81.6921 0.912 82.9321 1.256 84.0201 1.944C85.1081 2.632 85.9561 3.632 86.5641 4.944C87.1881 6.24 87.5001 7.792 87.5001 9.6C87.5001 11.408 87.1881 12.968 86.5641 14.28C85.9561 15.576 85.1081 16.568 84.0201 17.256C82.9321 17.944 81.6921 18.288 80.3001 18.288ZM80.3001 15C81.3241 15 82.1241 14.56 82.7001 13.68C83.2921 12.8 83.5881 11.44 83.5881 9.6C83.5881 7.76 83.2921 6.4 82.7001 5.52C82.1241 4.64 81.3241 4.2 80.3001 4.2C79.2921 4.2 78.4921 4.64 77.9001 5.52C77.3241 6.4 77.0361 7.76 77.0361 9.6C77.0361 11.44 77.3241 12.8 77.9001 13.68C78.4921 14.56 79.2921 15 80.3001 15ZM96.5891 18.288C95.1971 18.288 93.9571 17.944 92.8691 17.256C91.7811 16.568 90.9251 15.576 90.3011 14.28C89.6931 12.968 89.3891 11.408 89.3891 9.6C89.3891 7.792 89.6931 6.24 90.3011 4.944C90.9251 3.632 91.7811 2.632 92.8691 1.944C93.9571 1.256 95.1971 0.912 96.5891 0.912C97.9811 0.912 99.2211 1.256 100.309 1.944C101.397 2.632 102.245 3.632 102.853 4.944C103.477 6.24 103.789 7.792 103.789 9.6C103.789 11.408 103.477 12.968 102.853 14.28C102.245 15.576 101.397 16.568 100.309 17.256C99.2211 17.944 97.9811 18.288 96.5891 18.288ZM96.5891 15C97.6131 15 98.4131 14.56 98.9891 13.68C99.5811 12.8 99.8771 11.44 99.8771 9.6C99.8771 7.76 99.5811 6.4 98.9891 5.52C98.4131 4.64 97.6131 4.2 96.5891 4.2C95.5811 4.2 94.7811 4.64 94.1891 5.52C93.6131 6.4 93.3251 7.76 93.3251 9.6C93.3251 11.44 93.6131 12.8 94.1891 13.68C94.7811 14.56 95.5811 15 96.5891 15ZM120.947 4.896C122.147 4.896 123.235 5.176 124.211 5.736C125.203 6.28 125.979 7.056 126.539 8.064C127.099 9.056 127.379 10.216 127.379 11.544C127.379 12.872 127.099 14.04 126.539 15.048C125.979 16.04 125.203 16.816 124.211 17.376C123.235 17.92 122.147 18.192 120.947 18.192C119.299 18.192 118.003 17.672 117.059 16.632V22.656H113.315V5.088H116.891V6.576C117.819 5.456 119.171 4.896 120.947 4.896ZM120.299 15.12C121.259 15.12 122.043 14.8 122.651 14.16C123.275 13.504 123.587 12.632 123.587 11.544C123.587 10.456 123.275 9.592 122.651 8.952C122.043 8.296 121.259 7.968 120.299 7.968C119.339 7.968 118.547 8.296 117.923 8.952C117.315 9.592 117.011 10.456 117.011 11.544C117.011 12.632 117.315 13.504 117.923 14.16C118.547 14.8 119.339 15.12 120.299 15.12Z" fill="#FF001E"/>
</svg>
