<svg width="73" height="36" viewBox="0 0 73 36" fill="none" xmlns="http://www.w3.org/2000/svg">
<path d="M18.568 15.08C21.512 15.56 23.768 16.664 25.336 18.392C26.904 20.088 27.688 22.2 27.688 24.728C27.688 26.68 27.176 28.488 26.152 30.152C25.128 31.784 23.56 33.096 21.448 34.088C19.368 35.08 16.808 35.576 13.768 35.576C11.4 35.576 9.064 35.272 6.76 34.664C4.488 34.024 2.552 33.128 0.952 31.976L3.976 26.024C5.256 26.984 6.728 27.736 8.392 28.28C10.088 28.792 11.816 29.048 13.576 29.048C15.528 29.048 17.064 28.68 18.184 27.944C19.304 27.176 19.864 26.104 19.864 24.728C19.864 21.976 17.768 20.6 13.576 20.6H10.024V15.464L16.936 7.64H2.632V1.4H26.152V6.44L18.568 15.08ZM56.1479 28.664V35H30.7559V29.96L43.7159 17.72C45.0919 16.408 46.0199 15.288 46.4999 14.36C46.9799 13.4 47.2199 12.456 47.2199 11.528C47.2199 10.184 46.7559 9.16 45.8279 8.456C44.9319 7.72 43.6039 7.352 41.8439 7.352C40.3719 7.352 39.0439 7.64 37.8599 8.216C36.6759 8.76 35.6839 9.592 34.8839 10.712L29.2199 7.064C30.5319 5.112 32.3399 3.592 34.6439 2.504C36.9479 1.384 39.5879 0.823999 42.5639 0.823999C45.0599 0.823999 47.2359 1.24 49.0919 2.072C50.9799 2.872 52.4359 4.024 53.4599 5.528C54.5159 7 55.0439 8.744 55.0439 10.76C55.0439 12.584 54.6599 14.296 53.8919 15.896C53.1239 17.496 51.6359 19.32 49.4279 21.368L41.6999 28.664H56.1479ZM72.3164 1.4V35H64.5404V7.64H57.8204V1.4H72.3164Z" fill="#FF001E"/>
</svg>
