<svg width="90" height="35" viewBox="0 0 90 35" fill="none" xmlns="http://www.w3.org/2000/svg">
<path d="M18.568 14.08C21.512 14.56 23.768 15.664 25.336 17.392C26.904 19.088 27.688 21.2 27.688 23.728C27.688 25.68 27.176 27.488 26.152 29.152C25.128 30.784 23.56 32.096 21.448 33.088C19.368 34.08 16.808 34.576 13.768 34.576C11.4 34.576 9.064 34.272 6.76 33.664C4.488 33.024 2.552 32.128 0.952 30.976L3.976 25.024C5.256 25.984 6.728 26.736 8.392 27.28C10.088 27.792 11.816 28.048 13.576 28.048C15.528 28.048 17.064 27.68 18.184 26.944C19.304 26.176 19.864 25.104 19.864 23.728C19.864 20.976 17.768 19.6 13.576 19.6H10.024V14.464L16.936 6.64H2.632V0.399998H26.152V5.44L18.568 14.08ZM62.0463 26.944H56.5743V34H48.9903V26.944H30.8943V21.712L46.7343 0.399998H54.8943L40.2063 20.608H49.2303V14.32H56.5743V20.608H62.0463V26.944ZM75.7983 13.024C80.5343 13.024 84.0223 13.968 86.2623 15.856C88.5343 17.744 89.6703 20.272 89.6703 23.44C89.6703 25.488 89.1583 27.36 88.1343 29.056C87.1103 30.72 85.5423 32.064 83.4303 33.088C81.3503 34.08 78.7743 34.576 75.7023 34.576C73.3343 34.576 70.9983 34.272 68.6943 33.664C66.4223 33.024 64.4863 32.128 62.8863 30.976L65.9583 25.024C67.2383 25.984 68.7103 26.736 70.3743 27.28C72.0383 27.792 73.7503 28.048 75.5103 28.048C77.4623 28.048 78.9983 27.664 80.1183 26.896C81.2383 26.128 81.7983 25.056 81.7983 23.68C81.7983 22.24 81.2063 21.152 80.0223 20.416C78.8703 19.68 76.8543 19.312 73.9743 19.312H65.3823L67.1103 0.399998H87.6063V6.64H73.5903L73.0623 13.024H75.7983Z" fill="#FF001E"/>
</svg>
