<svg width="128" height="23" viewBox="0 0 128 23" fill="none" xmlns="http://www.w3.org/2000/svg">
<path d="M7.848 18.192C6.488 18.192 5.264 17.912 4.176 17.352C3.104 16.776 2.264 15.984 1.656 14.976C1.048 13.968 0.744 12.824 0.744 11.544C0.744 10.264 1.048 9.12 1.656 8.112C2.264 7.104 3.104 6.32 4.176 5.76C5.264 5.184 6.488 4.896 7.848 4.896C9.208 4.896 10.424 5.184 11.496 5.76C12.568 6.32 13.408 7.104 14.016 8.112C14.624 9.12 14.928 10.264 14.928 11.544C14.928 12.824 14.624 13.968 14.016 14.976C13.408 15.984 12.568 16.776 11.496 17.352C10.424 17.912 9.208 18.192 7.848 18.192ZM7.848 15.12C8.808 15.12 9.592 14.8 10.2 14.16C10.824 13.504 11.136 12.632 11.136 11.544C11.136 10.456 10.824 9.592 10.2 8.952C9.592 8.296 8.808 7.968 7.848 7.968C6.888 7.968 6.096 8.296 5.472 8.952C4.848 9.592 4.536 10.456 4.536 11.544C4.536 12.632 4.848 13.504 5.472 14.16C6.096 14.8 6.888 15.12 7.848 15.12ZM27.8824 8.16H23.5144V18H19.7944V8.16H15.4264V5.088H27.8824V8.16ZM51.195 14.472H48.459V18H44.667V14.472H35.619V11.856L43.539 1.2H47.619L40.275 11.304H44.787V8.16H48.459V11.304H51.195V14.472ZM64.9148 7.512C67.2828 7.512 69.0268 7.984 70.1468 8.928C71.2828 9.872 71.8508 11.136 71.8508 12.72C71.8508 13.744 71.5948 14.68 71.0828 15.528C70.5708 16.36 69.7868 17.032 68.7308 17.544C67.6908 18.04 66.4028 18.288 64.8668 18.288C63.6828 18.288 62.5148 18.136 61.3628 17.832C60.2268 17.512 59.2588 17.064 58.4588 16.488L59.9948 13.512C60.6348 13.992 61.3708 14.368 62.2028 14.64C63.0348 14.896 63.8908 15.024 64.7708 15.024C65.7468 15.024 66.5148 14.832 67.0748 14.448C67.6348 14.064 67.9148 13.528 67.9148 12.84C67.9148 12.12 67.6188 11.576 67.0268 11.208C66.4508 10.84 65.4428 10.656 64.0028 10.656H59.7068L60.5708 1.2H70.8188V4.32H63.8108L63.5468 7.512H64.9148ZM80.6282 18.288C79.2362 18.288 77.9962 17.944 76.9082 17.256C75.8202 16.568 74.9642 15.576 74.3402 14.28C73.7322 12.968 73.4282 11.408 73.4282 9.6C73.4282 7.792 73.7322 6.24 74.3402 4.944C74.9642 3.632 75.8202 2.632 76.9082 1.944C77.9962 1.256 79.2362 0.912 80.6282 0.912C82.0202 0.912 83.2602 1.256 84.3482 1.944C85.4362 2.632 86.2842 3.632 86.8922 4.944C87.5162 6.24 87.8282 7.792 87.8282 9.6C87.8282 11.408 87.5162 12.968 86.8922 14.28C86.2842 15.576 85.4362 16.568 84.3482 17.256C83.2602 17.944 82.0202 18.288 80.6282 18.288ZM80.6282 15C81.6522 15 82.4522 14.56 83.0282 13.68C83.6202 12.8 83.9162 11.44 83.9162 9.6C83.9162 7.76 83.6202 6.4 83.0282 5.52C82.4522 4.64 81.6522 4.2 80.6282 4.2C79.6202 4.2 78.8202 4.64 78.2282 5.52C77.6522 6.4 77.3642 7.76 77.3642 9.6C77.3642 11.44 77.6522 12.8 78.2282 13.68C78.8202 14.56 79.6202 15 80.6282 15ZM96.9173 18.288C95.5253 18.288 94.2853 17.944 93.1973 17.256C92.1093 16.568 91.2533 15.576 90.6293 14.28C90.0213 12.968 89.7173 11.408 89.7173 9.6C89.7173 7.792 90.0213 6.24 90.6293 4.944C91.2533 3.632 92.1093 2.632 93.1973 1.944C94.2853 1.256 95.5253 0.912 96.9173 0.912C98.3093 0.912 99.5493 1.256 100.637 1.944C101.725 2.632 102.573 3.632 103.181 4.944C103.805 6.24 104.117 7.792 104.117 9.6C104.117 11.408 103.805 12.968 103.181 14.28C102.573 15.576 101.725 16.568 100.637 17.256C99.5493 17.944 98.3093 18.288 96.9173 18.288ZM96.9173 15C97.9413 15 98.7413 14.56 99.3173 13.68C99.9093 12.8 100.205 11.44 100.205 9.6C100.205 7.76 99.9093 6.4 99.3173 5.52C98.7413 4.64 97.9413 4.2 96.9173 4.2C95.9093 4.2 95.1093 4.64 94.5173 5.52C93.9413 6.4 93.6533 7.76 93.6533 9.6C93.6533 11.44 93.9413 12.8 94.5173 13.68C95.1093 14.56 95.9093 15 96.9173 15ZM121.275 4.896C122.475 4.896 123.563 5.176 124.539 5.736C125.531 6.28 126.307 7.056 126.867 8.064C127.427 9.056 127.707 10.216 127.707 11.544C127.707 12.872 127.427 14.04 126.867 15.048C126.307 16.04 125.531 16.816 124.539 17.376C123.563 17.92 122.475 18.192 121.275 18.192C119.627 18.192 118.331 17.672 117.387 16.632V22.656H113.643V5.088H117.219V6.576C118.147 5.456 119.499 4.896 121.275 4.896ZM120.627 15.12C121.587 15.12 122.371 14.8 122.979 14.16C123.603 13.504 123.915 12.632 123.915 11.544C123.915 10.456 123.603 9.592 122.979 8.952C122.371 8.296 121.587 7.968 120.627 7.968C119.667 7.968 118.875 8.296 118.251 8.952C117.643 9.592 117.339 10.456 117.339 11.544C117.339 12.632 117.643 13.504 118.251 14.16C118.875 14.8 119.667 15.12 120.627 15.12Z" fill="#FF001E"/>
</svg>
