<svg width="92" height="36" viewBox="0 0 92 36" fill="none" xmlns="http://www.w3.org/2000/svg">
<path d="M17.048 13.928C19.192 13.928 21.144 14.36 22.904 15.224C24.664 16.088 26.056 17.32 27.08 18.92C28.104 20.488 28.616 22.312 28.616 24.392C28.616 26.632 28.056 28.6 26.936 30.296C25.816 31.992 24.28 33.304 22.328 34.232C20.408 35.128 18.264 35.576 15.896 35.576C11.192 35.576 7.512 34.136 4.856 31.256C2.2 28.376 0.872 24.264 0.872 18.92C0.872 15.112 1.592 11.848 3.032 9.128C4.472 6.408 6.472 4.344 9.032 2.936C11.624 1.528 14.616 0.823999 18.008 0.823999C19.8 0.823999 21.512 1.032 23.144 1.448C24.808 1.832 26.216 2.392 27.368 3.128L24.488 8.84C22.824 7.72 20.728 7.16 18.2 7.16C15.352 7.16 13.096 7.992 11.432 9.656C9.768 11.32 8.872 13.736 8.744 16.904C10.728 14.92 13.496 13.928 17.048 13.928ZM15.464 29.768C17.128 29.768 18.472 29.32 19.496 28.424C20.552 27.528 21.08 26.312 21.08 24.776C21.08 23.24 20.552 22.024 19.496 21.128C18.472 20.2 17.096 19.736 15.368 19.736C13.672 19.736 12.28 20.216 11.192 21.176C10.104 22.104 9.56 23.304 9.56 24.776C9.56 26.248 10.088 27.448 11.144 28.376C12.2 29.304 13.64 29.768 15.464 29.768ZM54.4265 17.336C56.0905 18.168 57.3545 19.256 58.2185 20.6C59.1145 21.944 59.5625 23.496 59.5625 25.256C59.5625 27.336 58.9705 29.16 57.7865 30.728C56.6025 32.264 54.9385 33.464 52.7945 34.328C50.6505 35.16 48.1705 35.576 45.3545 35.576C42.5385 35.576 40.0585 35.16 37.9145 34.328C35.8025 33.464 34.1545 32.264 32.9705 30.728C31.8185 29.16 31.2425 27.336 31.2425 25.256C31.2425 23.496 31.6745 21.944 32.5385 20.6C33.4345 19.256 34.6985 18.168 36.3305 17.336C35.0825 16.568 34.1225 15.608 33.4505 14.456C32.7785 13.272 32.4425 11.928 32.4425 10.424C32.4425 8.472 32.9865 6.776 34.0745 5.336C35.1625 3.896 36.6825 2.792 38.6345 2.024C40.5865 1.224 42.8265 0.823999 45.3545 0.823999C47.9145 0.823999 50.1705 1.224 52.1225 2.024C54.1065 2.792 55.6425 3.896 56.7305 5.336C57.8185 6.776 58.3625 8.472 58.3625 10.424C58.3625 11.928 58.0265 13.272 57.3545 14.456C56.6825 15.608 55.7065 16.568 54.4265 17.336ZM45.3545 6.536C43.7865 6.536 42.5225 6.92 41.5625 7.688C40.6345 8.424 40.1705 9.448 40.1705 10.76C40.1705 12.04 40.6345 13.048 41.5625 13.784C42.4905 14.52 43.7545 14.888 45.3545 14.888C46.9545 14.888 48.2345 14.52 49.1945 13.784C50.1545 13.048 50.6345 12.04 50.6345 10.76C50.6345 9.448 50.1545 8.424 49.1945 7.688C48.2345 6.92 46.9545 6.536 45.3545 6.536ZM45.3545 29.864C47.3065 29.864 48.8425 29.432 49.9625 28.568C51.1145 27.672 51.6905 26.488 51.6905 25.016C51.6905 23.544 51.1145 22.376 49.9625 21.512C48.8425 20.648 47.3065 20.216 45.3545 20.216C43.4345 20.216 41.9145 20.648 40.7945 21.512C39.6745 22.376 39.1145 23.544 39.1145 25.016C39.1145 26.52 39.6745 27.704 40.7945 28.568C41.9145 29.432 43.4345 29.864 45.3545 29.864ZM86.114 17.336C87.778 18.168 89.042 19.256 89.906 20.6C90.802 21.944 91.25 23.496 91.25 25.256C91.25 27.336 90.658 29.16 89.474 30.728C88.29 32.264 86.626 33.464 84.482 34.328C82.338 35.16 79.858 35.576 77.042 35.576C74.226 35.576 71.746 35.16 69.602 34.328C67.49 33.464 65.842 32.264 64.658 30.728C63.506 29.16 62.93 27.336 62.93 25.256C62.93 23.496 63.362 21.944 64.226 20.6C65.122 19.256 66.386 18.168 68.018 17.336C66.77 16.568 65.81 15.608 65.138 14.456C64.466 13.272 64.13 11.928 64.13 10.424C64.13 8.472 64.674 6.776 65.762 5.336C66.85 3.896 68.37 2.792 70.322 2.024C72.274 1.224 74.514 0.823999 77.042 0.823999C79.602 0.823999 81.858 1.224 83.81 2.024C85.794 2.792 87.33 3.896 88.418 5.336C89.506 6.776 90.05 8.472 90.05 10.424C90.05 11.928 89.714 13.272 89.042 14.456C88.37 15.608 87.394 16.568 86.114 17.336ZM77.042 6.536C75.474 6.536 74.21 6.92 73.25 7.688C72.322 8.424 71.858 9.448 71.858 10.76C71.858 12.04 72.322 13.048 73.25 13.784C74.178 14.52 75.442 14.888 77.042 14.888C78.642 14.888 79.922 14.52 80.882 13.784C81.842 13.048 82.322 12.04 82.322 10.76C82.322 9.448 81.842 8.424 80.882 7.688C79.922 6.92 78.642 6.536 77.042 6.536ZM77.042 29.864C78.994 29.864 80.53 29.432 81.65 28.568C82.802 27.672 83.378 26.488 83.378 25.016C83.378 23.544 82.802 22.376 81.65 21.512C80.53 20.648 78.994 20.216 77.042 20.216C75.122 20.216 73.602 20.648 72.482 21.512C71.362 22.376 70.802 23.544 70.802 25.016C70.802 26.52 71.362 27.704 72.482 28.568C73.602 29.432 75.122 29.864 77.042 29.864Z" fill="#FF001E"/>
</svg>
